<mxfile host="www.draw.io" modified="2019-11-20T06:53:39.822Z" agent="Mozilla/5.0 (Windows NT 10.0; WOW64) AppleWebKit/537.36 (KHTML, like Gecko) Chrome/78.0.3904.97 Safari/537.36" etag="AJhvash-DhLGgux7dg09" version="12.2.7" type="github" pages="1">
  <diagram id="j5J2W2VcfoC4Jcf2RFkl" name="第 1 页">
    <mxGraphModel dx="868" dy="450" grid="1" gridSize="10" guides="1" tooltips="1" connect="1" arrows="1" fold="1" page="1" pageScale="1" pageWidth="827" pageHeight="1169" math="0" shadow="0">
      <root>
        <mxCell id="0"/>
        <mxCell id="1" parent="0"/>
        <mxCell id="1Ye0kJsYCwCrshENgOoS-1" value="1、借款" style="edgeStyle=orthogonalEdgeStyle;rounded=0;orthogonalLoop=1;jettySize=auto;html=1;exitX=1;exitY=0.5;exitDx=0;exitDy=0;entryX=0;entryY=0.5;entryDx=0;entryDy=0;" parent="1" source="1Ye0kJsYCwCrshENgOoS-2" target="1Ye0kJsYCwCrshENgOoS-6" edge="1">
          <mxGeometry relative="1" as="geometry"/>
        </mxCell>
        <mxCell id="1Ye0kJsYCwCrshENgOoS-2" value="用户" style="ellipse;whiteSpace=wrap;html=1;" parent="1" vertex="1">
          <mxGeometry x="130" y="400" width="120" height="80" as="geometry"/>
        </mxCell>
        <mxCell id="1Ye0kJsYCwCrshENgOoS-3" value="2、申请提现" style="edgeStyle=orthogonalEdgeStyle;rounded=0;orthogonalLoop=1;jettySize=auto;html=1;entryX=0.5;entryY=0;entryDx=0;entryDy=0;exitX=0.4;exitY=-0.017;exitDx=0;exitDy=0;exitPerimeter=0;" parent="1" source="1Ye0kJsYCwCrshENgOoS-6" target="1Ye0kJsYCwCrshENgOoS-11" edge="1">
          <mxGeometry x="-0.4194" relative="1" as="geometry">
            <mxPoint x="400" y="230" as="sourcePoint"/>
            <mxPoint as="offset"/>
          </mxGeometry>
        </mxCell>
        <mxCell id="1Ye0kJsYCwCrshENgOoS-4" style="edgeStyle=orthogonalEdgeStyle;rounded=0;orthogonalLoop=1;jettySize=auto;html=1;" parent="1" source="1Ye0kJsYCwCrshENgOoS-6" target="1Ye0kJsYCwCrshENgOoS-17" edge="1">
          <mxGeometry relative="1" as="geometry"/>
        </mxCell>
        <mxCell id="1Ye0kJsYCwCrshENgOoS-5" value="8、提现入账处理" style="text;html=1;resizable=0;points=[];align=center;verticalAlign=middle;labelBackgroundColor=#ffffff;" parent="1Ye0kJsYCwCrshENgOoS-4" vertex="1" connectable="0">
          <mxGeometry x="-0.2" y="2" relative="1" as="geometry">
            <mxPoint x="6" y="2" as="offset"/>
          </mxGeometry>
        </mxCell>
        <mxCell id="1Ye0kJsYCwCrshENgOoS-28" value="13、根据当前活动发放优惠券、红包等" style="edgeStyle=orthogonalEdgeStyle;rounded=0;orthogonalLoop=1;jettySize=auto;html=1;" parent="1" source="1Ye0kJsYCwCrshENgOoS-6" target="1Ye0kJsYCwCrshENgOoS-27" edge="1">
          <mxGeometry x="0.1905" y="17" relative="1" as="geometry">
            <mxPoint as="offset"/>
          </mxGeometry>
        </mxCell>
        <mxCell id="1Ye0kJsYCwCrshENgOoS-32" value="12、短信提示用户提现成功" style="edgeStyle=orthogonalEdgeStyle;rounded=0;orthogonalLoop=1;jettySize=auto;html=1;" parent="1" target="1Ye0kJsYCwCrshENgOoS-29" edge="1">
          <mxGeometry x="-0.2687" relative="1" as="geometry">
            <mxPoint x="473" y="490" as="sourcePoint"/>
            <Array as="points">
              <mxPoint x="310" y="490"/>
            </Array>
            <mxPoint as="offset"/>
          </mxGeometry>
        </mxCell>
        <mxCell id="eNOHGJmCiz_VNKtad-c_-2" style="edgeStyle=orthogonalEdgeStyle;rounded=0;orthogonalLoop=1;jettySize=auto;html=1;entryX=0.5;entryY=0;entryDx=0;entryDy=0;" edge="1" parent="1" source="1Ye0kJsYCwCrshENgOoS-6" target="eNOHGJmCiz_VNKtad-c_-1">
          <mxGeometry relative="1" as="geometry">
            <Array as="points">
              <mxPoint x="473" y="490"/>
              <mxPoint x="650" y="490"/>
            </Array>
          </mxGeometry>
        </mxCell>
        <mxCell id="eNOHGJmCiz_VNKtad-c_-3" value="14、更新积分" style="text;html=1;resizable=0;points=[];align=center;verticalAlign=middle;labelBackgroundColor=#ffffff;" vertex="1" connectable="0" parent="eNOHGJmCiz_VNKtad-c_-2">
          <mxGeometry x="0.1034" y="4" relative="1" as="geometry">
            <mxPoint x="-65.5" y="4" as="offset"/>
          </mxGeometry>
        </mxCell>
        <mxCell id="1Ye0kJsYCwCrshENgOoS-6" value="平台系统" style="rounded=1;whiteSpace=wrap;html=1;" parent="1" vertex="1">
          <mxGeometry x="413" y="410" width="120" height="60" as="geometry"/>
        </mxCell>
        <mxCell id="1Ye0kJsYCwCrshENgOoS-7" style="edgeStyle=orthogonalEdgeStyle;rounded=0;orthogonalLoop=1;jettySize=auto;html=1;entryX=0;entryY=0.5;entryDx=0;entryDy=0;" parent="1" source="1Ye0kJsYCwCrshENgOoS-11" target="1Ye0kJsYCwCrshENgOoS-23" edge="1">
          <mxGeometry relative="1" as="geometry"/>
        </mxCell>
        <mxCell id="1Ye0kJsYCwCrshENgOoS-8" value="3、发起支付" style="text;html=1;resizable=0;points=[];align=center;verticalAlign=middle;labelBackgroundColor=#ffffff;" parent="1Ye0kJsYCwCrshENgOoS-7" vertex="1" connectable="0">
          <mxGeometry x="-0.1963" y="4" relative="1" as="geometry">
            <mxPoint as="offset"/>
          </mxGeometry>
        </mxCell>
        <mxCell id="1Ye0kJsYCwCrshENgOoS-9" style="edgeStyle=orthogonalEdgeStyle;rounded=0;orthogonalLoop=1;jettySize=auto;html=1;entryX=0.75;entryY=0;entryDx=0;entryDy=0;" parent="1" source="1Ye0kJsYCwCrshENgOoS-11" target="1Ye0kJsYCwCrshENgOoS-6" edge="1">
          <mxGeometry relative="1" as="geometry"/>
        </mxCell>
        <mxCell id="1Ye0kJsYCwCrshENgOoS-10" value="7、通知提现成功" style="text;html=1;resizable=0;points=[];align=center;verticalAlign=middle;labelBackgroundColor=#ffffff;" parent="1Ye0kJsYCwCrshENgOoS-9" vertex="1" connectable="0">
          <mxGeometry x="-0.58" relative="1" as="geometry">
            <mxPoint x="17.5" y="148.5" as="offset"/>
          </mxGeometry>
        </mxCell>
        <mxCell id="1Ye0kJsYCwCrshENgOoS-11" value="订单中心" style="rounded=1;whiteSpace=wrap;html=1;" parent="1" vertex="1">
          <mxGeometry x="540" y="115" width="120" height="60" as="geometry"/>
        </mxCell>
        <mxCell id="1Ye0kJsYCwCrshENgOoS-12" style="edgeStyle=orthogonalEdgeStyle;rounded=0;orthogonalLoop=1;jettySize=auto;html=1;exitX=1;exitY=0.5;exitDx=0;exitDy=0;entryX=0;entryY=0.5;entryDx=0;entryDy=0;" parent="1" source="1Ye0kJsYCwCrshENgOoS-17" target="1Ye0kJsYCwCrshENgOoS-18" edge="1">
          <mxGeometry relative="1" as="geometry">
            <Array as="points">
              <mxPoint x="810" y="440"/>
              <mxPoint x="810" y="320"/>
            </Array>
          </mxGeometry>
        </mxCell>
        <mxCell id="1Ye0kJsYCwCrshENgOoS-13" value="9、获取产品的计息、还款方式等信息" style="text;html=1;resizable=0;points=[];align=center;verticalAlign=middle;labelBackgroundColor=#ffffff;" parent="1Ye0kJsYCwCrshENgOoS-12" vertex="1" connectable="0">
          <mxGeometry x="0.1571" y="-2" relative="1" as="geometry">
            <mxPoint x="37" y="-2" as="offset"/>
          </mxGeometry>
        </mxCell>
        <mxCell id="1Ye0kJsYCwCrshENgOoS-14" value="10、出账，生成还款计划" style="edgeStyle=orthogonalEdgeStyle;rounded=0;orthogonalLoop=1;jettySize=auto;html=1;entryX=-0.008;entryY=0.617;entryDx=0;entryDy=0;entryPerimeter=0;" parent="1" edge="1">
          <mxGeometry x="-0.0199" y="24" relative="1" as="geometry">
            <mxPoint x="769" y="440" as="sourcePoint"/>
            <mxPoint x="1068" y="437" as="targetPoint"/>
            <Array as="points">
              <mxPoint x="914" y="440"/>
              <mxPoint x="914" y="437"/>
            </Array>
            <mxPoint x="-24" y="24" as="offset"/>
          </mxGeometry>
        </mxCell>
        <mxCell id="1Ye0kJsYCwCrshENgOoS-15" style="edgeStyle=orthogonalEdgeStyle;rounded=0;orthogonalLoop=1;jettySize=auto;html=1;entryX=0;entryY=0.5;entryDx=0;entryDy=0;" parent="1" source="1Ye0kJsYCwCrshENgOoS-17" target="1Ye0kJsYCwCrshENgOoS-19" edge="1">
          <mxGeometry relative="1" as="geometry">
            <Array as="points">
              <mxPoint x="810" y="440"/>
              <mxPoint x="810" y="540"/>
            </Array>
          </mxGeometry>
        </mxCell>
        <mxCell id="1Ye0kJsYCwCrshENgOoS-16" value="11、生成借款合同" style="text;html=1;resizable=0;points=[];align=center;verticalAlign=middle;labelBackgroundColor=#ffffff;" parent="1Ye0kJsYCwCrshENgOoS-15" vertex="1" connectable="0">
          <mxGeometry x="0.0988" y="3" relative="1" as="geometry">
            <mxPoint x="-25" y="3" as="offset"/>
          </mxGeometry>
        </mxCell>
        <mxCell id="1Ye0kJsYCwCrshENgOoS-17" value="核算中心" style="rounded=1;whiteSpace=wrap;html=1;" parent="1" vertex="1">
          <mxGeometry x="650" y="410" width="120" height="60" as="geometry"/>
        </mxCell>
        <mxCell id="1Ye0kJsYCwCrshENgOoS-18" value="产品中心" style="rounded=1;whiteSpace=wrap;html=1;" parent="1" vertex="1">
          <mxGeometry x="1070" y="290" width="120" height="60" as="geometry"/>
        </mxCell>
        <mxCell id="1Ye0kJsYCwCrshENgOoS-19" value="合同中心" style="rounded=1;whiteSpace=wrap;html=1;" parent="1" vertex="1">
          <mxGeometry x="1080" y="510" width="120" height="60" as="geometry"/>
        </mxCell>
        <mxCell id="1Ye0kJsYCwCrshENgOoS-20" value="账务中心" style="rounded=1;whiteSpace=wrap;html=1;" parent="1" vertex="1">
          <mxGeometry x="1070" y="400" width="120" height="60" as="geometry"/>
        </mxCell>
        <mxCell id="1Ye0kJsYCwCrshENgOoS-21" value="4、实际支付" style="edgeStyle=orthogonalEdgeStyle;rounded=0;orthogonalLoop=1;jettySize=auto;html=1;entryX=0;entryY=0.5;entryDx=0;entryDy=0;" parent="1" source="1Ye0kJsYCwCrshENgOoS-23" target="1Ye0kJsYCwCrshENgOoS-25" edge="1">
          <mxGeometry relative="1" as="geometry"/>
        </mxCell>
        <mxCell id="1Ye0kJsYCwCrshENgOoS-22" value="6、更新订单状态" style="edgeStyle=orthogonalEdgeStyle;rounded=0;orthogonalLoop=1;jettySize=auto;html=1;entryX=0.5;entryY=1;entryDx=0;entryDy=0;" parent="1" source="1Ye0kJsYCwCrshENgOoS-23" target="1Ye0kJsYCwCrshENgOoS-11" edge="1">
          <mxGeometry relative="1" as="geometry">
            <Array as="points">
              <mxPoint x="870" y="195"/>
              <mxPoint x="600" y="195"/>
            </Array>
          </mxGeometry>
        </mxCell>
        <mxCell id="1Ye0kJsYCwCrshENgOoS-23" value="支付中心" style="rounded=1;whiteSpace=wrap;html=1;" parent="1" vertex="1">
          <mxGeometry x="810" y="115" width="120" height="50" as="geometry"/>
        </mxCell>
        <mxCell id="1Ye0kJsYCwCrshENgOoS-24" value="5、回调通知支付成功" style="edgeStyle=orthogonalEdgeStyle;rounded=0;orthogonalLoop=1;jettySize=auto;html=1;entryX=0.5;entryY=0;entryDx=0;entryDy=0;" parent="1" source="1Ye0kJsYCwCrshENgOoS-25" target="1Ye0kJsYCwCrshENgOoS-23" edge="1">
          <mxGeometry relative="1" as="geometry">
            <mxPoint x="1180" y="10" as="targetPoint"/>
            <Array as="points">
              <mxPoint x="1125" y="90"/>
              <mxPoint x="870" y="90"/>
            </Array>
          </mxGeometry>
        </mxCell>
        <mxCell id="1Ye0kJsYCwCrshENgOoS-25" value="第三方支付渠道（京东支付、宝付等）" style="rounded=1;whiteSpace=wrap;html=1;" parent="1" vertex="1">
          <mxGeometry x="1070" y="110" width="110" height="60" as="geometry"/>
        </mxCell>
        <mxCell id="1Ye0kJsYCwCrshENgOoS-26" value="&lt;font style=&quot;font-size: 10px&quot;&gt;&lt;b&gt;提现业务流程&lt;/b&gt;&lt;/font&gt;" style="rounded=1;whiteSpace=wrap;html=1;strokeColor=none;" parent="1" vertex="1">
          <mxGeometry x="671" y="20" width="120" height="60" as="geometry"/>
        </mxCell>
        <mxCell id="1Ye0kJsYCwCrshENgOoS-27" value="活动中心" style="rounded=1;whiteSpace=wrap;html=1;" parent="1" vertex="1">
          <mxGeometry x="414.5" y="554" width="117" height="60" as="geometry"/>
        </mxCell>
        <mxCell id="1Ye0kJsYCwCrshENgOoS-29" value="消息中心" style="rounded=1;whiteSpace=wrap;html=1;" parent="1" vertex="1">
          <mxGeometry x="250" y="554" width="120" height="60" as="geometry"/>
        </mxCell>
        <mxCell id="eNOHGJmCiz_VNKtad-c_-1" value="会员中心" style="rounded=1;whiteSpace=wrap;html=1;" vertex="1" parent="1">
          <mxGeometry x="590" y="554" width="120" height="60" as="geometry"/>
        </mxCell>
      </root>
    </mxGraphModel>
  </diagram>
</mxfile>
